<?xml version="1.0" encoding="utf-8"?>
<!-- Generator: Adobe Illustrator 27.2.0, SVG Export Plug-In . SVG Version: 6.00 Build 0)  -->
<svg version="1.1" id="Layer_1" xmlns="http://www.w3.org/2000/svg" xmlns:xlink="http://www.w3.org/1999/xlink" x="0px" y="0px"
	 width="500px" height="500px" viewBox="0 0 500 500" enable-background="new 0 0 500 500" xml:space="preserve">
<g id="g30_00000008859283517224215380000008970055873459560120_" transform="translate(-2.5246708,3.4128891)">
	<g>
		<path fill="#1A5FB4" d="M189.3,182.5c0,43.4-23.8,78.5-53.1,78.5c-29.4,0-53.1-35.2-53.1-78.5c0-7.1,0.7-14,1.8-20.6
			c20.5,1.7,53.1,0.2,99.3-13.1C187.5,159,189.3,170.5,189.3,182.5z"/>
	</g>
	<g id="ellipse29_00000008855485683515220490000015322915658758794403_" opacity="0.34">
		<path fill="#241F31" d="M136.1,151.2c14.3,0,25.9,15.6,25.9,35c0,19.3-11.6,35-25.9,35c-14.3,0-25.9-15.6-25.9-35
			C110.3,166.8,121.9,151.2,136.1,151.2z"/>
	</g>
	<g id="path30_00000144299763882756453770000016240345016755514811_">
		<circle fill="#FFFFFF" cx="148.6" cy="223.9" r="12.8"/>
	</g>
</g>
<g id="g30_00000077319339276828392810000017059069294440908174_" transform="translate(-2.5246708,3.4128891)">
	<g>
		<path fill="#1A5FB4" d="M422,186.6c0,43.4-23.8,78.6-53.1,78.6c-29.3,0-53.1-35.2-53.1-78.6c0-12,1.8-23.4,5.1-33.6
			c46.2,13.4,78.9,14.8,99.4,13.2C421.4,172.7,422,179.6,422,186.6z"/>
	</g>
	<g id="ellipse29_00000093155876965670478550000006595420270677897397_" opacity="0.34">
		<path fill="#241F31" d="M368.9,155c14.3,0,25.9,15.6,25.9,35c0,19.3-11.6,35-25.9,35c-14.3,0-25.9-15.7-25.9-35
			C343,170.6,354.6,155,368.9,155z"/>
	</g>
	<g id="path30_00000008106763754672100480000008397642429360451230_">
		<path fill="#FFFFFF" d="M381.4,215.3c7.1,0,12.8,5.7,12.8,12.8c0,7.1-5.7,12.8-12.8,12.8c-7.1,0-12.8-5.7-12.8-12.8
			C368.6,221,374.3,215.3,381.4,215.3z"/>
	</g>
</g>
<path fill="#241F31" d="M96.5,177.4c-1.5,0-3,0-4.5,0c-26.7-0.6-39.9-6.2-41.4-6.8l9.4-21l-0.1-0.1c0.4,0.2,45.5,18.3,145.7-17.1
	c6-2.1,12.6,1,14.7,7c2.1,6-1,12.6-7,14.7C169.6,169.6,130.3,177.4,96.5,177.4z"/>
<path fill="#241F31" d="M403.6,181.6c-26.6,0-65.1-4.9-116.9-23.3c-6-2.1-9.1-8.7-7-14.7c2.1-6,8.7-9.1,14.7-7
	c100.2,35.4,145.3,17.3,145.7,17.1l-0.1,0.1l9.4,21C448.3,175.3,433.6,181.6,403.6,181.6z"/>
<path fill="#ED333B" d="M240.9,286.3c-28.6,6.2-41.6,43.5-40.5,60.7c1.1,17.1,25.1-0.6,40.6-0.3c15.5,0.2,39.1,16.6,52,7.1
	C306,344.3,292.8,281.2,240.9,286.3L240.9,286.3z"/>
</svg>
