<?xml version="1.0" encoding="utf-8"?>
<!-- Generator: Adobe Illustrator 27.2.0, SVG Export Plug-In . SVG Version: 6.00 Build 0)  -->
<svg version="1.1"
	 id="OBJECTS" xmlns:cc="http://creativecommons.org/ns#" xmlns:dc="http://purl.org/dc/elements/1.1/" xmlns:rdf="http://www.w3.org/1999/02/22-rdf-syntax-ns#" xmlns:sodipodi="http://sodipodi.sourceforge.net/DTD/sodipodi-0.dtd" xmlns:inkscape="http://www.inkscape.org/namespaces/inkscape" xmlns:svg="http://www.w3.org/2000/svg"
	 xmlns="http://www.w3.org/2000/svg" xmlns:xlink="http://www.w3.org/1999/xlink" x="0px" y="0px" width="500px" height="500px"
	 viewBox="0 0 500 500" enable-background="new 0 0 500 500" xml:space="preserve">
<path fill="#1A5FB4" d="M372.6,179.5c29.4,0,53.1,35.2,53.1,78.6c0,43.4-23.8,78.6-53.1,78.6c-29.4,0-53.1-35.2-53.1-78.6
	C319.5,214.7,343.3,179.5,372.6,179.5z"/>
<path opacity="0.36" fill="#241F31" d="M372.6,219.8c14.3,0,25.9,17.1,25.9,38.2c0,21.1-11.6,38.2-25.9,38.2
	c-14.3,0-25.9-17.1-25.9-38.2C346.8,236.9,358.4,219.8,372.6,219.8z"/>
<path fill="#FFFFFF" d="M350.9,204.7c11.1,0,20.2,9,20.2,20.2c0,11.1-9,20.2-20.2,20.2c-11.1,0-20.2-9-20.2-20.2
	C330.7,213.8,339.8,204.7,350.9,204.7z"/>
<path fill="#FFFFFF" d="M385.1,286.7c7.1,0,12.8,5.7,12.8,12.8c0,7.1-5.7,12.8-12.8,12.8c-7.1,0-12.8-5.7-12.8-12.8
	C372.4,292.4,378.1,286.7,385.1,286.7z"/>
<path fill="#1A5FB4" d="M134.1,180.9c29.4,0,53.1,35.2,53.1,78.6c0,43.4-23.8,78.6-53.1,78.6c-29.4,0-53.1-35.2-53.1-78.6
	C81,216.1,104.8,180.9,134.1,180.9z"/>
<path opacity="0.36" fill="#241F31" d="M134.1,221.3c14.3,0,25.9,17.1,25.9,38.2c0,21.1-11.6,38.2-25.9,38.2
	c-14.3,0-25.9-17.1-25.9-38.2C108.2,238.4,119.8,221.3,134.1,221.3z"/>
<path fill="#FFFFFF" d="M112.4,206.2c11.1,0,20.2,9,20.2,20.2s-9,20.2-20.2,20.2c-11.1,0-20.2-9-20.2-20.2S101.2,206.2,112.4,206.2z
	"/>
<circle fill="#FFFFFF" cx="146.6" cy="300.9" r="12.8"/>
<path fill="#241F31" d="M180.9,176.6c-4,0-7.9-2.1-10-5.8c-5-8.8-11.7-16.6-18.2-21.3c-9.2-6.7-21-8.4-32.5-4.7
	c-11.1,3.6-19.7,11.8-23.1,22c-2,6-8.5,9.3-14.6,7.3c-6-2-9.3-8.5-7.3-14.6c5.7-17.1,19.9-30.8,37.9-36.6c18.3-5.8,38.1-2.8,53.1,8
	c9.2,6.7,18,16.8,24.7,28.5c3.2,5.5,1.2,12.5-4.3,15.7C184.8,176.1,182.8,176.6,180.9,176.6z"/>
<path fill="#241F31" d="M316.1,183.2c-1.6,0-3.1-0.3-4.7-1c-5.8-2.6-8.4-9.4-5.8-15.2c5.5-12.3,13.2-23.3,21.7-30.9
	c13.8-12.3,33.2-17.3,52-13.3c18.5,3.9,34,16.1,41.4,32.6c2.6,5.8,0,12.6-5.8,15.2c-5.8,2.6-12.6,0-15.2-5.8
	c-4.4-9.8-13.9-17.1-25.2-19.5c-11.8-2.5-23.4,0.4-31.9,8c-6,5.4-11.9,13.8-16,23.1C324.7,180.6,320.5,183.2,316.1,183.2z"/>
<path fill="#241F31" d="M252.8,382c-11.4,0-25-7.6-33.3-29.4c-1.1-3,0.4-6.3,3.3-7.4c3-1.1,6.3,0.4,7.4,3.3
	c5.8,15.1,15.3,23.5,24.9,21.8c12-2.1,17.6-17.1,17.7-30.1c0-3.2,2.6-5.7,5.8-5.7c3.2,0,5.7,2.6,5.7,5.8
	c-0.3,25.2-13.9,38.9-27.2,41.2C255.8,381.9,254.3,382,252.8,382z"/>
</svg>
