<?xml version="1.0" encoding="utf-8"?>
<!-- Generator: Adobe Illustrator 27.2.0, SVG Export Plug-In . SVG Version: 6.00 Build 0)  -->
<svg version="1.1" id="Layer_1" xmlns="http://www.w3.org/2000/svg" xmlns:xlink="http://www.w3.org/1999/xlink" x="0px" y="0px"
	 width="500px" height="500px" viewBox="0 0 500 500" enable-background="new 0 0 500 500" xml:space="preserve">
<g id="g30_00000023281083792583676690000014744061889683076281_" transform="translate(-2.5246708,3.4128891)">
	<g id="path29_00000044890100443905144020000006625099448166753980_">
		<ellipse fill="#1A5FB4" cx="136.2" cy="224.6" rx="53.1" ry="78.6"/>
	</g>
	<g id="ellipse29_00000126302921763404840770000009614573521711151765_" opacity="0.34">
		<ellipse fill="#241F31" cx="136.2" cy="224.6" rx="25.9" ry="38.2"/>
	</g>
	<g id="circle30_00000075848583707453970920000011517117485379281553_">
		<path fill="#FFFFFF" d="M114.4,171.3c11.1,0,20.2,9,20.2,20.2c0,11.1-9,20.2-20.2,20.2c-11.1,0-20.2-9-20.2-20.2
			C94.3,180.3,103.3,171.3,114.4,171.3z"/>
	</g>
	<g id="path30_00000083057712988462287180000007425941531585286279_">
		
			<ellipse transform="matrix(0.1602 -0.9871 0.9871 0.1602 -137.7225 370.1024)" fill="#FFFFFF" cx="148.6" cy="266" rx="12.8" ry="12.8"/>
	</g>
</g>
<g id="g30_00000103953477041129448010000009640328739992073139_" transform="translate(-2.5246708,3.4128891)">
	<g id="path29_00000138535966766343237670000015516363327499201682_">
		<ellipse fill="#1A5FB4" cx="368.9" cy="228.7" rx="53.1" ry="78.6"/>
	</g>
	<g id="ellipse29_00000062895748153167241510000016045687368605769619_" opacity="0.34">
		<ellipse fill="#241F31" cx="368.9" cy="228.7" rx="25.9" ry="38.2"/>
	</g>
	<g id="circle30_00000140727288772811287440000015172584092586525840_">
		<path fill="#FFFFFF" d="M347.2,175.4c11.1,0,20.2,9,20.2,20.2c0,11.1-9,20.2-20.2,20.2c-11.1,0-20.2-9-20.2-20.2
			C327,184.4,336,175.4,347.2,175.4z"/>
	</g>
	<g id="path30_00000125570786633819323740000005002031734641087395_">
		<path fill="#FFFFFF" d="M381.4,257.4c7.1,0,12.8,5.7,12.8,12.8c0,7.1-5.7,12.8-12.8,12.8c-7.1,0-12.8-5.7-12.8-12.8
			C368.6,263.1,374.3,257.4,381.4,257.4z"/>
	</g>
</g>
<path fill="#ED333B" d="M250.9,324.6c12.9,0,23.3,11.3,23.3,25.2S263.7,375,250.9,375c-12.9,0-23.3-11.3-23.3-25.2
	S238,324.6,250.9,324.6z"/>
<path fill="#241F31" d="M95.1,162.6c-4.6,0-9.3-0.2-13.9-0.7c-6.3-0.6-10.9-6.3-10.3-12.6c0.6-6.3,6.3-10.9,12.6-10.3
	c29,2.9,58.4-5.6,78.8-22.9c4.9-4.1,12.1-3.5,16.2,1.4c4.1,4.9,3.5,12.1-1.4,16.2C155,152.4,125.7,162.6,95.1,162.6z"/>
<path fill="#241F31" d="M399.9,166.1c-30.6,0-60-10.2-82.1-28.9c-4.9-4.1-5.5-11.4-1.4-16.2c4.1-4.8,11.4-5.5,16.2-1.4
	c20.4,17.2,49.8,25.8,78.8,22.9c6.3-0.7,12,4,12.6,10.3c0.6,6.3-4,12-10.3,12.6C409.2,165.8,404.5,166.1,399.9,166.1z"/>
</svg>
