<?xml version="1.0" encoding="utf-8"?>
<!-- Generator: Adobe Illustrator 27.2.0, SVG Export Plug-In . SVG Version: 6.00 Build 0)  -->
<svg version="1.1" id="Layer_1" xmlns="http://www.w3.org/2000/svg" xmlns:xlink="http://www.w3.org/1999/xlink" x="0px" y="0px"
	 width="500px" height="500px" viewBox="0 0 500 500" enable-background="new 0 0 500 500" xml:space="preserve">
<path fill="#241F31" d="M96.5,262.7c-3,0-5.9-1.7-7.3-4.6c-1.9-4-0.2-8.9,3.8-10.8l78.2-37.5l-81.5-36.3c-4.1-1.8-5.9-6.6-4.1-10.7
	s6.6-5.9,10.7-4.1l97.5,43.4c2.9,1.3,4.8,4.1,4.8,7.3s-1.7,6-4.6,7.4l-93.9,45C98.9,262.5,97.7,262.7,96.5,262.7z"/>
<path fill="#241F31" d="M403.5,264c-1.2,0-2.4-0.3-3.5-0.8l-93.9-45c-2.8-1.4-4.6-4.3-4.6-7.4s1.9-6,4.8-7.3l97.5-43.4
	c4.1-1.8,8.9,0,10.7,4.1c1.8,4.1,0,8.9-4.1,10.7l-81.5,36.3l78.2,37.5c4,1.9,5.7,6.8,3.8,10.8C409.4,262.3,406.5,264,403.5,264z"/>
<g id="path44">
	<path fill="#ED333B" d="M187.9,269.3l121.4-0.8c0,0,2.2,61.7-50.4,65.1C206.1,337,185.4,301.7,187.9,269.3z"/>
</g>
<g id="path45" opacity="0.22">
	<path fill="#FFFFFF" d="M265.6,300.8c-2.9-0.2-5.9-0.3-9.1-0.3c-24,0.2-40.5,7.3-51.9,16.3c11.5,11.3,29.3,18.4,54.2,16.8
		c20.3-1.3,32.5-11.3,39.7-23.1C290.2,305.5,279.5,301.8,265.6,300.8L265.6,300.8z"/>
</g>
<g id="path46">
	<path fill="#EFEFEF" d="M299.8,268.5l-98.7,0.7c1.7,9.6,5.1,19.9,11.6,23.7c13.4,7.8,69.7,10.4,79-1.4
		C295.5,286.6,298.1,277.5,299.8,268.5z"/>
</g>
</svg>
