<?xml version="1.0" encoding="utf-8"?>
<!-- Generator: Adobe Illustrator 27.2.0, SVG Export Plug-In . SVG Version: 6.00 Build 0)  -->
<svg version="1.1" id="Layer_1" xmlns="http://www.w3.org/2000/svg" xmlns:xlink="http://www.w3.org/1999/xlink" x="0px" y="0px"
	 width="500px" height="500px" viewBox="0 0 500 500" enable-background="new 0 0 500 500" xml:space="preserve">
<g id="g82" transform="translate(-2.5246708,173.369)">
	<g id="ellipse80">
		<path fill="#1A5FB4" d="M371.8-26.3c29.4,0,53.1,35.2,53.1,78.6c0,43.4-23.8,78.6-53.1,78.6c-29.4,0-53.1-35.2-53.1-78.6
			C318.6,8.9,342.4-26.3,371.8-26.3z"/>
	</g>
	<g id="ellipse81" opacity="0.34">
		<path fill="#241F31" d="M371.8,14c14.3,0,25.9,17.1,25.9,38.2c0,21.1-11.6,38.2-25.9,38.2c-14.3,0-25.9-17.1-25.9-38.2
			C345.9,31.1,357.5,14,371.8,14z"/>
	</g>
	<g id="circle81">
		<path fill="#FFFFFF" d="M350.1-1.1c11.1,0,20.2,9,20.2,20.2c0,11.1-9,20.2-20.2,20.2c-11.1,0-20.2-9-20.2-20.2
			C329.9,8,338.9-1.1,350.1-1.1z"/>
	</g>
	<g id="circle82">
		<path fill="#FFFFFF" d="M384.3,80.9c7.1,0,12.8,5.7,12.8,12.8c0,7.1-5.7,12.8-12.8,12.8c-7.1,0-12.8-5.7-12.8-12.8
			C371.5,86.6,377.2,80.9,384.3,80.9z"/>
	</g>
</g>
<g id="ellipse80_00000072994270386963492930000016506993336840018584_">
	<path fill="#1A5FB4" d="M130.7,148.5c29.4,0,53.1,35.2,53.1,78.6c0,43.4-23.8,78.6-53.1,78.6c-29.4,0-53.1-35.2-53.1-78.6
		C77.6,183.7,101.4,148.5,130.7,148.5z"/>
</g>
<g id="ellipse81_00000115488057003445059290000001380290584772441475_" opacity="0.34">
	<path fill="#241F31" d="M130.7,188.8c14.3,0,25.9,17.1,25.9,38.2s-11.6,38.2-25.9,38.2c-14.3,0-25.9-17.1-25.9-38.2
		S116.5,188.8,130.7,188.8z"/>
</g>
<g id="circle81_00000018917470609858117920000008408078433768163468_">
	<path fill="#FFFFFF" d="M109,173.8c11.1,0,20.2,9,20.2,20.2c0,11.1-9,20.2-20.2,20.2c-11.1,0-20.2-9-20.2-20.2
		C88.8,182.8,97.9,173.8,109,173.8z"/>
</g>
<g id="circle82_00000148623961054077798010000017873730323280303540_">
	<circle fill="#FFFFFF" cx="143.2" cy="268.5" r="12.8"/>
</g>
<path fill="#241F31" d="M177.5,144.2c-4,0-7.9-2.1-10-5.8c-5-8.8-11.7-16.6-18.2-21.3c-9.2-6.7-21-8.4-32.5-4.7
	c-11.1,3.6-19.7,11.8-23.1,22c-2,6-8.5,9.3-14.6,7.3c-6-2-9.3-8.5-7.3-14.6c5.7-17.1,19.9-30.8,37.9-36.6c18.3-5.8,38.1-2.8,53.1,8
	c9.2,6.7,18,16.8,24.7,28.5c3.2,5.5,1.2,12.5-4.3,15.7C181.4,143.7,179.5,144.2,177.5,144.2z"/>
<path fill="#241F31" d="M312.8,150.7c-1.6,0-3.1-0.3-4.7-1c-5.8-2.6-8.4-9.4-5.8-15.2c5.5-12.3,13.2-23.3,21.7-30.9
	c13.8-12.3,33.2-17.3,52-13.3c18.5,3.9,34,16.1,41.4,32.6c2.6,5.8,0,12.6-5.8,15.2c-5.8,2.6-12.6,0-15.2-5.8
	c-4.4-9.8-13.9-17.1-25.2-19.5c-11.8-2.5-23.4,0.4-31.9,8c-6,5.4-11.9,13.8-16,23.1C321.4,148.2,317.2,150.7,312.8,150.7z"/>
<path fill="#ED333B" d="M222.2,340.6c0,0-38.5,24.3-26,47.6c12.5,23.3,50,14.6,60.9-24.3C244.7,356.2,222.2,340.6,222.2,340.6z"/>
<path fill="#241F31" d="M264.4,369c-18.8,0-40.2-9.9-50.8-33.7c-1.5-3.4,0-7.5,3.5-9c3.4-1.5,7.5,0,9,3.5
	c9.1,20.3,28.4,27.3,43.5,25.2c10.7-1.5,22.8-8.2,24.9-22.7c0.5-3.7,4-6.3,7.8-5.8c3.7,0.5,6.3,4,5.8,7.8
	c-2.7,18.1-17,31.6-36.6,34.3C269.2,368.9,266.8,369,264.4,369z"/>
</svg>
