<?xml version="1.0" encoding="utf-8"?>
<!-- Generator: Adobe Illustrator 27.2.0, SVG Export Plug-In . SVG Version: 6.00 Build 0)  -->
<svg version="1.1" id="Layer_1" xmlns="http://www.w3.org/2000/svg" xmlns:xlink="http://www.w3.org/1999/xlink" x="0px" y="0px"
	 width="500px" height="500px" viewBox="0 0 500 500" enable-background="new 0 0 500 500" xml:space="preserve">
<g id="g71" transform="rotate(-90,152.23012,194.81396)">
	<g id="ellipse69">
		
			<ellipse transform="matrix(-2.535182e-06 -1 1 -2.535182e-06 -316.7791 506.9163)" fill="#1A5FB4" cx="95.1" cy="411.8" rx="78.6" ry="53.1"/>
	</g>
	<g id="ellipse70" opacity="0.34">
		
			<ellipse transform="matrix(-2.535182e-06 -1 1 -2.535182e-06 -316.7791 506.9163)" fill="#241F31" cx="95.1" cy="411.8" rx="38.2" ry="25.9"/>
	</g>
	<g id="circle70">
		<path fill="#FFFFFF" d="M109,356.5c-11.1,0-20.2,9-20.2,20.2c0,11.1,9,20.2,20.2,20.2c11.1,0,20.2-9,20.2-20.2
			C129.1,365.5,120.1,356.5,109,356.5z"/>
	</g>
	<g id="circle71">
		<path fill="#FFFFFF" d="M74.7,438.4c-7.1,0-12.8,5.7-12.8,12.8c0,7.1,5.7,12.8,12.8,12.8c7.1,0,12.8-5.7,12.8-12.8
			C87.5,444.2,81.8,438.4,74.7,438.4z"/>
	</g>
</g>
<g id="ellipse69_00000085239801096067090070000000535012379085747887_">
	<ellipse fill="#1A5FB4" cx="130.7" cy="253.4" rx="78.6" ry="53.1"/>
</g>
<g id="ellipse70_00000109725418191964133040000002068571226812613291_" opacity="0.34">
	<ellipse fill="#241F31" cx="130.7" cy="253.4" rx="38.2" ry="25.9"/>
</g>
<g id="circle70_00000074429373261356424140000009191925122909001859_">
	<path fill="#FFFFFF" d="M75.4,239.5c0,11.1,9,20.2,20.2,20.2c11.1,0,20.2-9,20.2-20.2c0-11.1-9-20.2-20.2-20.2
		C84.4,219.4,75.4,228.4,75.4,239.5z"/>
</g>
<g id="circle71_00000152951436596681612150000010622134334973348500_">
	<path fill="#FFFFFF" d="M157.3,273.8c0,7.1,5.7,12.8,12.8,12.8c7.1,0,12.8-5.7,12.8-12.8c0-7.1-5.7-12.8-12.8-12.8
		C163,261,157.3,266.7,157.3,273.8z"/>
</g>
<path fill="#241F31" d="M119,210.6c-18.1,0-38.5-5.5-60.8-16.4c-5.7-2.8-8.1-9.7-5.3-15.4c2.8-5.7,9.7-8.1,15.4-5.3
	c30.4,14.9,55.3,18,73.7,9.2c7.4-3.5,25.4-15.1,32.4-46.2c1.4-6.2,7.6-10.1,13.8-8.7c6.2,1.4,10.1,7.6,8.7,13.8
	c-3.1,13.6-13.7,47-45,61.9C142,208.2,131,210.6,119,210.6z"/>
<path fill="#241F31" d="M371.4,210.6c-12,0-23-2.4-33-7.2c-31.3-14.9-41.9-48.3-45-61.9c-1.4-6.2,2.5-12.4,8.7-13.8
	c6.2-1.4,12.4,2.5,13.8,8.7c7.1,31.1,25,42.7,32.4,46.2c18.5,8.8,43.3,5.7,73.7-9.2c5.7-2.8,12.6-0.4,15.4,5.3s0.4,12.6-5.3,15.4
	C409.8,205.1,389.5,210.6,371.4,210.6z"/>
<path fill="#ED333B" d="M306.8,327.5c-22-11.8-95.9-13.5-115.4,9.1c-19.6,22.6,7.6,26.8,35.4,22c27.9-4.8,44.9,4,71.1,2.1
	C324,358.9,334.5,342.4,306.8,327.5L306.8,327.5z"/>
</svg>
