<?xml version="1.0" encoding="utf-8"?>
<!-- Generator: Adobe Illustrator 27.2.0, SVG Export Plug-In . SVG Version: 6.00 Build 0)  -->
<svg version="1.1" id="Layer_1" xmlns="http://www.w3.org/2000/svg" xmlns:xlink="http://www.w3.org/1999/xlink" x="0px" y="0px"
	 width="500px" height="500px" viewBox="0 0 500 500" enable-background="new 0 0 500 500" xml:space="preserve">
<g id="g30" transform="translate(-2.5246708,3.4128891)">
	<g id="path29">
		<path fill="#1A5FB4" d="M374.9,159.1c29.4,0,53.1,35.2,53.1,78.6s-23.8,78.6-53.1,78.6c-29.4,0-53.1-35.2-53.1-78.6
			S345.5,159.1,374.9,159.1z"/>
	</g>
	<g id="ellipse29" opacity="0.34">
		<path fill="#241F31" d="M374.9,199.4c14.3,0,25.9,17.1,25.9,38.2c0,21.1-11.6,38.2-25.9,38.2c-14.3,0-25.9-17.1-25.9-38.2
			C349,216.5,360.6,199.4,374.9,199.4z"/>
	</g>
	<g id="circle30">
		<path fill="#FFFFFF" d="M353.2,184.3c11.1,0,20.2,9,20.2,20.2c0,11.1-9,20.2-20.2,20.2c-11.1,0-20.2-9-20.2-20.2
			C333,193.4,342,184.3,353.2,184.3z"/>
	</g>
	<g id="path30">
		<path fill="#FFFFFF" d="M387.4,266.3c7.1,0,12.8,5.7,12.8,12.8c0,7.1-5.7,12.8-12.8,12.8c-7.1,0-12.8-5.7-12.8-12.8
			C374.6,272,380.3,266.3,387.4,266.3z"/>
	</g>
</g>
<g id="path29_00000132057149282514324060000007319025419355688855_">
	<path fill="#1A5FB4" d="M133.8,164c29.4,0,53.1,35.2,53.1,78.6c0,43.4-23.8,78.6-53.1,78.6c-29.4,0-53.1-35.2-53.1-78.6
		C80.7,199.1,104.5,164,133.8,164z"/>
</g>
<g id="ellipse29_00000110449066198089177930000009777216187754730381_" opacity="0.34">
	<path fill="#241F31" d="M133.8,204.3c14.3,0,25.9,17.1,25.9,38.2c0,21.1-11.6,38.2-25.9,38.2c-14.3,0-25.9-17.1-25.9-38.2
		C108,221.4,119.6,204.3,133.8,204.3z"/>
</g>
<g id="circle30_00000118375748051452001880000005866213710065357997_">
	<path fill="#FFFFFF" d="M112.1,189.2c11.1,0,20.2,9,20.2,20.2c0,11.1-9,20.2-20.2,20.2c-11.1,0-20.2-9-20.2-20.2
		C92,198.2,101,189.2,112.1,189.2z"/>
</g>
<g id="path30_00000071539011124018352090000018146112659120716172_">
	<circle fill="#FFFFFF" cx="146.3" cy="283.9" r="12.8"/>
</g>
<path fill="#241F31" d="M299.9,385.9c-1.2,0-2.3-0.4-3.4-1.1c-12-8.6-26.7-15-40.3-17.5c-16.9-3.1-31.2-0.4-42.4,8.2
	c-2.5,1.9-6.1,1.4-8.1-1.1c-1.9-2.5-1.4-6.1,1.1-8.1c13.7-10.4,31.5-14,51.5-10.3c15.3,2.8,31.7,9.9,45,19.5c2.6,1.9,3.2,5.5,1.3,8
	C303.4,385.1,301.7,385.9,299.9,385.9z"/>
<path fill="#241F31" d="M105.5,179c-12.7,0-26-2.4-40-7.1c-6-2-9.2-8.6-7.2-14.6c2-6,8.6-9.2,14.6-7.2c42,14.2,75.1,2.4,95.4-34.3
	c3.1-5.6,10.1-7.6,15.6-4.5c5.6,3.1,7.6,10.1,4.5,15.6c-13,23.5-30.6,39.2-52.2,46.9C126.6,177.3,116.3,179,105.5,179z"/>
<path fill="#241F31" d="M394.5,177.5c-10.8,0-21-1.7-30.7-5.2c-21.6-7.7-39.1-23.4-52.2-46.9c-3.1-5.6-1.1-12.6,4.5-15.6
	c5.6-3.1,12.6-1.1,15.6,4.5c20.4,36.7,53.4,48.6,95.4,34.3c6-2,12.5,1.2,14.6,7.2c2,6-1.2,12.5-7.2,14.6
	C420.5,175.1,407.1,177.5,394.5,177.5z"/>
</svg>
