<?xml version="1.0" encoding="utf-8"?>
<!-- Generator: Adobe Illustrator 27.2.0, SVG Export Plug-In . SVG Version: 6.00 Build 0)  -->
<svg version="1.1" id="Layer_1" xmlns="http://www.w3.org/2000/svg" xmlns:xlink="http://www.w3.org/1999/xlink" x="0px" y="0px"
	 width="500px" height="500px" viewBox="0 0 500 500" enable-background="new 0 0 500 500" xml:space="preserve">
<g id="g61" transform="translate(322.33978,89.401544)">
	<g id="ellipse59">
		<ellipse fill="#1A5FB4" cx="56.2" cy="167.5" rx="53.1" ry="78.6"/>
	</g>
	<g id="ellipse60" opacity="0.34">
		<path fill="#241F31" d="M56.2,129.3c14.3,0,25.9,17.1,25.9,38.2c0,21.1-11.6,38.2-25.9,38.2s-25.9-17.1-25.9-38.2
			C30.3,146.4,41.9,129.3,56.2,129.3z"/>
	</g>
	<g id="circle60">
		<path fill="#FFFFFF" d="M34.5,114.2c11.1,0,20.2,9,20.2,20.2c0,11.1-9,20.2-20.2,20.2s-20.2-9-20.2-20.2
			C14.3,123.2,23.3,114.2,34.5,114.2z"/>
	</g>
	<g id="circle61">
		<path fill="#FFFFFF" d="M68.7,196.1c7.1,0,12.8,5.7,12.8,12.8c0,7.1-5.7,12.8-12.8,12.8c-7.1,0-12.8-5.7-12.8-12.8
			C55.9,201.9,61.6,196.1,68.7,196.1z"/>
	</g>
</g>
<g id="ellipse59_00000022549096184972922680000008504177663381323667_">
	<ellipse fill="#1A5FB4" cx="140" cy="258.4" rx="53.1" ry="78.6"/>
</g>
<g id="ellipse60_00000036253257099963720470000000937747771536736660_" opacity="0.34">
	<path fill="#241F31" d="M140,220.1c14.3,0,25.9,17.1,25.9,38.2s-11.6,38.2-25.9,38.2c-14.3,0-25.9-17.1-25.9-38.2
		S125.7,220.1,140,220.1z"/>
</g>
<g id="circle60_00000170267747274474207820000000158043760551700909_">
	<path fill="#FFFFFF" d="M118.3,205.1c11.1,0,20.2,9,20.2,20.2c0,11.1-9,20.2-20.2,20.2s-20.2-9-20.2-20.2
		C98.1,214.1,107.1,205.1,118.3,205.1z"/>
</g>
<g id="circle61_00000145021012995846880440000008876926411641810584_">
	
		<ellipse transform="matrix(8.968364e-02 -0.996 0.996 8.968364e-02 -159.7718 424.7781)" fill="#FFFFFF" cx="152.5" cy="299.8" rx="12.8" ry="12.8"/>
</g>
<g id="path61">
	<path fill="#ED333B" d="M376.7,367.7c-24-12.7-57.5-6.5-96.5,0.7c-38.9,7.2-92.8-16-124.1-4.9c-31.2,11.1-16.4,37.1,15.6,59.2
		c32,22,111.6,22.5,158.9,8.6C378.1,417.4,412.4,381.6,376.7,367.7L376.7,367.7z"/>
</g>
<g id="path62" opacity="0.22">
	<path fill="#FFFFFF" d="M260.6,404.4c-33.8,0.4-47,18.2-52.1,31.9c36.2,7.2,84.3,5.1,118.1-3.9c-6.1-11.8-19.5-22.5-47.1-26.6
		C272.5,404.8,266.3,404.4,260.6,404.4z"/>
</g>
<g id="path63">
	<path fill="#EFEFEF" d="M340.1,360.3c-17.7,0.2-37.9,4-59.8,8.1c-32.4,6-75.1-9-106.5-7.9c5.5,12,15.6,31.3,28.3,40.8
		c19.1,14.3,108.8,9.5,130.8-3.1c11.6-6.6,16.7-23.2,19-37.5C348.1,360.4,344.2,360.3,340.1,360.3L340.1,360.3z"/>
</g>
<path fill="#241F31" d="M68.3,195c-1.4,0-2.7-0.2-4.1-0.8c-5.9-2.3-8.9-8.9-6.7-14.8c5.9-15.5,20.4-31.4,39.8-43.7
	c19.8-12.5,41.5-19,59.6-17.9c6.3,0.4,11.1,5.9,10.7,12.2c-0.4,6.3-5.9,11.2-12.2,10.7c-29.5-1.9-68.1,24.8-76.5,46.8
	C77.3,192.2,73,195,68.3,195z"/>
<path fill="#241F31" d="M421.1,118.1c-4.7,0-9.2-2.9-10.8-7.7c-9.5-26.9-36.3-41.6-71.5-39.3c-6.3,0.4-11.8-4.4-12.2-10.7
	c-0.4-6.3,4.4-11.8,10.7-12.2c45.4-3,81.7,18,94.7,54.6c2.1,6-1,12.6-7,14.7C423.7,117.8,422.4,118.1,421.1,118.1z"/>
</svg>
