<?xml version="1.0" encoding="utf-8"?>
<!-- Generator: Adobe Illustrator 27.2.0, SVG Export Plug-In . SVG Version: 6.00 Build 0)  -->
<svg version="1.1" id="Layer_1" xmlns="http://www.w3.org/2000/svg" xmlns:xlink="http://www.w3.org/1999/xlink" x="0px" y="0px"
	 width="500px" height="500px" viewBox="0 0 500 500" enable-background="new 0 0 500 500" xml:space="preserve">
<g id="path114">
	<path fill="#241F31" d="M151.3,173.6c-24.7,0-48.9-8.9-66.9-25.4c-4.7-4.3-5-11.6-0.7-16.2c4.3-4.7,11.6-5,16.2-0.7
		c18.3,16.7,45.2,23.3,70.3,17c20.8-5.2,36.5-18.5,42.9-36.5c2.1-6,8.7-9.1,14.7-7c6,2.1,9.1,8.7,7,14.7c-9,25.4-30.6,44.1-59,51.2
		C167.8,172.7,159.5,173.6,151.3,173.6z"/>
</g>
<g id="path115">
	<path fill="#241F31" d="M345.6,175.5c-13.1,0-25.2-2.3-36.1-7.1c-20.9-9-36.4-26.5-44.9-50.5c-2.1-6,1-12.6,7-14.7
		c6-2.1,12.6,1,14.7,7c6.4,18.1,17.3,30.5,32.3,37c21.4,9.2,51.2,5.8,86.4-9.7c5.8-2.6,12.6,0,15.2,5.9c2.6,5.8,0,12.6-5.9,15.2
		C388.9,169.9,365.9,175.5,345.6,175.5z"/>
</g>
<g id="path116">
	<path fill="#241F31" d="M227.2,343c-2.8,0-5.7-0.1-8.6-0.2c-3.8-0.2-6.7-3.4-6.5-7.2c0.2-3.8,3.4-6.7,7.2-6.5
		c13.4,0.6,25-0.4,37.3-1.6c13.4-1.2,27.3-2.5,43.6-1.4c3.8,0.3,6.6,3.5,6.4,7.3s-3.5,6.6-7.3,6.4c-15.2-1-27.9,0.2-41.4,1.4
		C248,342.1,238.1,343,227.2,343z"/>
</g>
<g id="path121">
	<path fill="#3584E4" d="M100.6,208.4c-29.9,9.2-3.2,34.2-5.3,50.8c-1.7,13.4-25.6,14.5-28.3,28.6c-2.7,13.9,15.7,17.3,17.7,29.9
		c2.5,14.9-19.4,23.2-16.4,40.5c3,17.1,92.5,32.3,104,26.2c15.4-8.1-7.6-29.8-7.6-40.7c0-16.5,15.6-21.3,19.1-35.5
		c3-12.3-8.4-21.7-9.9-33.1c-2-15.6,32.5-45.8,19.4-60.6c-1.2-1.3-13.1,0.8-15.1,0.6C152.4,212.5,126.5,210.3,100.6,208.4
		L100.6,208.4z"/>
</g>
<g id="path119">
	<path fill="#241F31" d="M216.9,227.5c-0.4,0-0.8,0-1.2-0.1L79.9,213.6c-6.3-0.6-10.9-6.3-10.3-12.6c0.6-6.3,6.3-10.9,12.6-10.3
		L218,204.6c6.3,0.6,10.9,6.3,10.3,12.6C227.7,223.1,222.7,227.5,216.9,227.5z"/>
</g>
<g id="path122">
	<path fill="#3584E4" d="M399.4,208.4c29.9,9.2,3.2,34.2,5.3,50.8c1.7,13.4,25.6,14.5,28.3,28.6c2.7,13.9-15.7,17.3-17.7,29.9
		c-2.5,14.9,19.4,23.2,16.4,40.5c-3,17.1-92.5,32.3-104,26.2c-15.4-8.1,7.6-29.8,7.6-40.7c0-16.5-15.6-21.3-19.1-35.5
		c-3-12.3,8.4-21.7,9.9-33.1c2-15.6-32.5-45.8-19.4-60.6c1.2-1.3,13.1,0.8,15.1,0.6C347.6,212.5,373.5,210.3,399.4,208.4
		L399.4,208.4z"/>
</g>
<g id="path120">
	<path fill="#241F31" d="M286.2,227.5c-5.8,0-10.8-4.4-11.4-10.3c-0.6-6.3,3.9-12,10.3-12.6l135.7-13.9c6.3-0.7,12,3.9,12.6,10.3
		c0.6,6.3-3.9,12-10.3,12.6l-135.7,13.9C287,227.5,286.6,227.5,286.2,227.5z"/>
</g>
<g id="path123">
	<path fill="#99C1F1" d="M109.8,222.8c-4.8,4.5-5.7,8.3-5,14.7c1,9.5,13.8,18,10.4,29.3c-4.5,15.2-27.3,14.6-23.7,33.3
		c1.3,7,5.4,14.4,8.1,21.1c1.1,2.9,4,11.4,4,8.3c0-12-8.9-20.4-1.4-32.8c7.9-13.2,29.5-13.5,34.3-29.6c3.5-11.9-13.8-32.3-3.9-41.3
		c0.7-0.7-1.9,0.4-2.9,0.5C122.7,227.5,115.4,226.7,109.8,222.8z"/>
</g>
<g id="path124">
	<path fill="#99C1F1" d="M350.9,228.2c-4.9,17.5,20.7,27.6,19.9,44.5c-0.5,9.8-10.7,16.3-16.3,23.2c-9.6,11.7,0.9,24,5.7,34.7
		c1.3,3-5-4.5-7.8-6.1c-7.1-4.2-9.3-10.1-12.4-17.5c-5.4-12.8,8.1-19.4,9.6-30.6c1.3-9.6-18-23.8-22.5-30.5c-3-4.5-2.4-9.2-1.6-14.3
		L350.9,228.2z"/>
</g>
</svg>
