<?xml version="1.0" encoding="utf-8"?>
<!-- Generator: Adobe Illustrator 27.2.0, SVG Export Plug-In . SVG Version: 6.00 Build 0)  -->
<svg version="1.1"
	 id="OBJECTS" xmlns:rdf="http://www.w3.org/1999/02/22-rdf-syntax-ns#" xmlns:cc="http://creativecommons.org/ns#" xmlns:sodipodi="http://sodipodi.sourceforge.net/DTD/sodipodi-0.dtd" xmlns:inkscape="http://www.inkscape.org/namespaces/inkscape" xmlns:dc="http://purl.org/dc/elements/1.1/" xmlns:svg="http://www.w3.org/2000/svg"
	 xmlns="http://www.w3.org/2000/svg" xmlns:xlink="http://www.w3.org/1999/xlink" x="0px" y="0px" width="500px" height="500px"
	 viewBox="0 0 500 500" enable-background="new 0 0 500 500" xml:space="preserve">
<g id="g69" transform="translate(0,261.17557)" inkscape:label="16">
	<g id="path52">
		<path fill="#241F31" d="M91.9-0.1c-3.1,0-6.1-1.7-7.5-4.7c-2-4.1-0.2-9.1,3.9-11.1l80.5-38.6L84.8-92c-4.2-1.9-6.1-6.8-4.2-11
			c1.9-4.2,6.8-6.1,11-4.2L192-62.4c3,1.3,4.9,4.2,4.9,7.5c0,3.2-1.8,6.2-4.7,7.6L95.5-0.9C94.3-0.4,93.1-0.1,91.9-0.1z"/>
	</g>
	<g id="path54">
		<path fill="#241F31" d="M408.1,1.2c-1.2,0-2.4-0.3-3.6-0.8L307.8-46c-2.9-1.4-4.8-4.4-4.7-7.6c0-3.2,2-6.2,4.9-7.5l100.4-44.7
			c4.2-1.9,9.1,0,11,4.2s0,9.1-4.2,11l-84,37.4l80.5,38.6c4.1,2,5.9,7,3.9,11.1C414.2-0.5,411.2,1.2,408.1,1.2z"/>
	</g>
	<g id="path69">
		<path fill="#241F31" d="M279.9,85.6c-4.4,0-9.4-0.5-15-1.4c-10.8-1.8-19.9-4.9-20.3-5c-3.7-1.2-5.7-5.2-4.4-8.9
			c1.2-3.7,5.2-5.7,8.9-4.4c0.1,0,8.5,2.8,18.3,4.5c16.1,2.7,21.9,0.1,23.6-1.2c1-0.7,2-1.8,2-4.6c0-18-19.9-18.6-22.1-18.6
			c-3.1,0-5.8-2-6.7-4.9c-0.9-2.9,0.1-6.1,2.6-7.9c8.9-6.4,18.4-16.8,17.9-21.5c-0.2-1.7-2.9-3.1-4.4-3.8c-8-3.5-15.4-2.3-22.8,3.5
			c-5.9,4.6-9.3,10.4-9.3,10.5c-1.9,3.4-6.2,4.5-9.6,2.6c-3.4-1.9-4.5-6.2-2.6-9.6c6.6-11.5,25.5-30.5,50-19.9
			c9.7,4.2,12.4,10.6,12.8,15.2c0.9,8.9-5.7,18-12.3,24.7c4.1,1.6,8.4,3.9,12,7.5c5.7,5.7,8.6,13.2,8.6,22.2
			c0,8.6-4.3,13.5-7.8,16.1C294.6,83.9,288.2,85.6,279.9,85.6z"/>
	</g>
</g>
</svg>
